<mxfile host="app.diagrams.net" agent="Mozilla/5.0 (Macintosh; Intel Mac OS X 10_15_7) AppleWebKit/537.36 (KHTML, like Gecko) Chrome/127.0.0.0 Safari/537.36" version="24.7.7">
  <diagram name="第 1 页" id="RtsHx9lzpKaj7P0ZU_rl">
    <mxGraphModel dx="1026" dy="565" grid="1" gridSize="10" guides="1" tooltips="1" connect="1" arrows="1" fold="1" page="1" pageScale="1" pageWidth="827" pageHeight="1169" math="0" shadow="0">
      <root>
        <mxCell id="0" />
        <mxCell id="1" parent="0" />
        <mxCell id="1BU0tSRznFUNwLN1YUFR-18" value="" style="rounded=0;whiteSpace=wrap;html=1;dashed=1;" vertex="1" parent="1">
          <mxGeometry x="45" y="60" width="240" height="250" as="geometry" />
        </mxCell>
        <mxCell id="1BU0tSRznFUNwLN1YUFR-6" style="edgeStyle=orthogonalEdgeStyle;rounded=0;orthogonalLoop=1;jettySize=auto;html=1;exitX=1;exitY=0.5;exitDx=0;exitDy=0;" edge="1" parent="1" source="1BU0tSRznFUNwLN1YUFR-4" target="1BU0tSRznFUNwLN1YUFR-5">
          <mxGeometry relative="1" as="geometry" />
        </mxCell>
        <mxCell id="1BU0tSRznFUNwLN1YUFR-4" value="" style="rounded=0;whiteSpace=wrap;html=1;" vertex="1" parent="1">
          <mxGeometry x="70" y="120" width="190" height="100" as="geometry" />
        </mxCell>
        <mxCell id="1BU0tSRznFUNwLN1YUFR-16" style="edgeStyle=orthogonalEdgeStyle;rounded=0;orthogonalLoop=1;jettySize=auto;html=1;exitX=0.5;exitY=1;exitDx=0;exitDy=0;entryX=0.5;entryY=1;entryDx=0;entryDy=0;" edge="1" parent="1" source="1BU0tSRznFUNwLN1YUFR-5" target="1BU0tSRznFUNwLN1YUFR-14">
          <mxGeometry relative="1" as="geometry" />
        </mxCell>
        <mxCell id="1BU0tSRznFUNwLN1YUFR-5" value="业务方" style="rounded=0;whiteSpace=wrap;html=1;" vertex="1" parent="1">
          <mxGeometry x="470" y="140" width="120" height="60" as="geometry" />
        </mxCell>
        <mxCell id="1BU0tSRznFUNwLN1YUFR-8" value="平台能力" style="text;html=1;align=center;verticalAlign=middle;resizable=0;points=[];autosize=1;strokeColor=none;fillColor=none;" vertex="1" parent="1">
          <mxGeometry x="320" y="140" width="70" height="30" as="geometry" />
        </mxCell>
        <mxCell id="1BU0tSRznFUNwLN1YUFR-9" value="效果回流" style="text;html=1;align=center;verticalAlign=middle;resizable=0;points=[];autosize=1;strokeColor=none;fillColor=none;" vertex="1" parent="1">
          <mxGeometry x="300" y="260" width="70" height="30" as="geometry" />
        </mxCell>
        <mxCell id="1BU0tSRznFUNwLN1YUFR-10" value="算法模型" style="rounded=0;whiteSpace=wrap;html=1;" vertex="1" parent="1">
          <mxGeometry x="80" y="180" width="70" height="30" as="geometry" />
        </mxCell>
        <mxCell id="1BU0tSRznFUNwLN1YUFR-11" value="自动规则" style="rounded=0;whiteSpace=wrap;html=1;" vertex="1" parent="1">
          <mxGeometry x="180" y="180" width="70" height="30" as="geometry" />
        </mxCell>
        <mxCell id="1BU0tSRznFUNwLN1YUFR-12" value="智能迭代" style="text;html=1;align=center;verticalAlign=middle;resizable=0;points=[];autosize=1;strokeColor=none;fillColor=none;" vertex="1" parent="1">
          <mxGeometry x="320" y="180" width="70" height="30" as="geometry" />
        </mxCell>
        <mxCell id="1BU0tSRznFUNwLN1YUFR-13" value="智能化引擎" style="text;html=1;align=center;verticalAlign=middle;whiteSpace=wrap;rounded=0;" vertex="1" parent="1">
          <mxGeometry x="127.5" y="130" width="75" height="30" as="geometry" />
        </mxCell>
        <mxCell id="1BU0tSRznFUNwLN1YUFR-17" style="edgeStyle=orthogonalEdgeStyle;rounded=0;orthogonalLoop=1;jettySize=auto;html=1;exitX=0.5;exitY=0;exitDx=0;exitDy=0;entryX=0.5;entryY=1;entryDx=0;entryDy=0;" edge="1" parent="1" source="1BU0tSRznFUNwLN1YUFR-14" target="1BU0tSRznFUNwLN1YUFR-4">
          <mxGeometry relative="1" as="geometry" />
        </mxCell>
        <mxCell id="1BU0tSRznFUNwLN1YUFR-14" value="平台数据" style="rounded=0;whiteSpace=wrap;html=1;" vertex="1" parent="1">
          <mxGeometry x="130" y="240" width="70" height="30" as="geometry" />
        </mxCell>
        <mxCell id="1BU0tSRznFUNwLN1YUFR-19" value="DMP平台" style="text;html=1;align=center;verticalAlign=middle;whiteSpace=wrap;rounded=0;" vertex="1" parent="1">
          <mxGeometry x="135" y="60" width="60" height="30" as="geometry" />
        </mxCell>
      </root>
    </mxGraphModel>
  </diagram>
</mxfile>
